<svg width="85" height="48" viewBox="0 0 85 48" fill="none" xmlns="http://www.w3.org/2000/svg">
<g clip-path="url(#clip0_897_3280)">
<path d="M7.34521 25.7266L10.8633 29.052C10.8633 29.052 28.1555 24.7036 42.2159 32.2653C42.2129 32.2653 31.9121 22.6429 7.34521 25.7266Z" fill="#C59444"/>
<path d="M-0.34082 18.6531L4.1641 22.2792C4.1641 22.2792 23.3257 19.3695 42.213 29.5933C42.213 29.5933 24.7806 13.0606 -0.34082 18.6531Z" fill="#C59444"/>
<path d="M42.8721 32.2653C56.9265 24.7036 74.2247 29.052 74.2247 29.052L77.7398 25.7266C53.1759 22.6429 42.8721 32.2653 42.8721 32.2653Z" fill="#C59444"/>
<path d="M42.8721 29.5933C61.7594 19.3695 80.9269 22.2792 80.9269 22.2792L85.4318 18.6531C60.3044 13.0606 42.8721 29.5933 42.8721 29.5933Z" fill="#C59444"/>
<path fill-rule="evenodd" clip-rule="evenodd" d="M50.9688 7.51079V2.82045H46.2254L42.8713 -0.496094L39.5172 2.82045H34.7738V7.51079L31.4346 10.8273L34.7857 14.1409V18.8313H39.5291L42.8713 22.1625L46.2254 18.846H50.9688V14.1409L54.3199 10.8273L50.9688 7.51079ZM48.1305 12.9823V16.0306H45.0507L42.8713 18.1856L40.6919 16.0306H37.6091V12.9823L35.4297 10.8273L37.6091 8.66936V5.62109H40.6919L42.8713 3.46607L45.0507 5.62109H48.1305V8.66936L50.3099 10.8273L48.1305 12.9823Z" fill="#3A472E"/>
<path d="M13.5461 43.3906V36.218H12.7113C12.3535 36.1999 12.0011 36.3098 11.7185 36.5276C11.477 36.7339 11.3548 37.0965 11.3548 37.6183H11V36.6248C10.9994 36.4716 11.0277 36.3197 11.0835 36.1767C11.1406 36.0302 11.2455 35.9067 11.3816 35.8259C11.5724 35.7271 11.7867 35.6813 12.0018 35.6933H17.5502V36.218H15.0846V43.3906H13.5461Z" fill="#3A472E"/>
<path d="M19.1578 43.5105C18.8644 43.5156 18.5719 43.4769 18.2903 43.3955C18.063 43.3283 17.8505 43.2193 17.6642 43.0742C17.4972 42.9424 17.3652 42.7724 17.2796 42.5789C17.192 42.3759 17.1483 42.1569 17.1513 41.9362C17.1398 41.5995 17.2324 41.2674 17.4167 40.984C17.6593 40.6849 17.9981 40.4769 18.3767 40.3944C19.0183 40.2388 19.6783 40.1703 20.3385 40.191H20.5144C20.5266 39.8173 20.4834 39.4439 20.3862 39.0825C20.328 38.8491 20.1926 38.6416 20.0016 38.4929C19.8257 38.3755 19.6174 38.3147 19.4053 38.319C19.1506 38.315 18.9001 38.3835 18.6838 38.5165C18.4246 38.7307 18.2599 39.0363 18.2247 39.3685H17.5747C17.5754 39.1615 17.5894 38.9547 17.6164 38.7494C17.6418 38.5452 17.7303 38.3537 17.8699 38.2011C18.0626 38.0208 18.3097 37.9079 18.5735 37.8797C18.9259 37.8185 19.2831 37.7889 19.6408 37.7913C19.9898 37.7868 20.3373 37.8386 20.6694 37.9446C20.954 38.0377 21.2139 38.1928 21.4297 38.3986C21.6465 38.6131 21.808 38.876 21.9008 39.1651C22.0145 39.5134 22.0689 39.878 22.0617 40.244V43.3896H21.057L20.6456 42.8649H20.5859C20.4541 43.0537 20.2755 43.206 20.0672 43.3071C19.7868 43.451 19.4736 43.521 19.1578 43.5105ZM19.5126 42.9209C19.6325 42.9241 19.7517 42.9031 19.863 42.859C19.9743 42.8148 20.0752 42.7486 20.1596 42.6644C20.3124 42.5241 20.4333 42.3532 20.5144 42.1632V40.7039H20.3385C19.9092 40.665 19.4791 40.7688 19.1161 40.9988C18.9082 41.2198 18.7795 41.5023 18.7499 41.8027C18.7203 42.1031 18.7913 42.4049 18.9521 42.6614C19.017 42.7463 19.1015 42.8146 19.1984 42.8608C19.2954 42.9069 19.4021 42.9296 19.5097 42.9268L19.5126 42.9209Z" fill="#3A472E"/>
<path d="M23.4183 43.3896V37.1987C23.4296 36.9097 23.3799 36.6216 23.2722 36.3526C23.1728 36.1404 22.9462 36.0343 22.5924 36.0343H22.4731V35.6834H23.8893C24.1127 35.6715 24.3352 35.7194 24.5333 35.822C24.6986 35.9311 24.815 36.099 24.8583 36.2907C24.9305 36.5879 24.9626 36.8932 24.9537 37.1987V43.3896H23.4183Z" fill="#3A472E"/>
<path d="M26.6409 43.389V39.4268C26.6518 39.1376 26.601 38.8493 26.4918 38.5807C26.3935 38.3655 26.1698 38.2594 25.8151 38.2594H25.6958V37.9086H27.112C27.3353 37.8966 27.5578 37.9445 27.756 38.0471C27.9212 38.1562 28.0376 38.3241 28.0809 38.5159C28.1532 38.814 28.1852 39.1203 28.1763 39.4268V43.389H26.6409ZM27.4071 37.2718C27.2828 37.2817 27.1579 37.2626 27.0424 37.216C26.9269 37.1694 26.8241 37.0966 26.7423 37.0035C26.5975 36.8292 26.5194 36.61 26.5217 36.3844C26.517 36.296 26.5317 36.2075 26.5646 36.1251C26.5975 36.0428 26.648 35.9683 26.7125 35.9068C26.7736 35.8493 26.8456 35.8042 26.9244 35.7744C27.0032 35.7445 27.0872 35.7304 27.1716 35.7329C27.2964 35.7232 27.4217 35.7424 27.5376 35.789C27.6535 35.8356 27.7569 35.9082 27.8394 36.0012C27.9836 36.1745 28.0607 36.3929 28.0571 36.6173C28.0617 36.706 28.0474 36.7946 28.015 36.8774C27.9827 36.9602 27.933 37.0353 27.8693 37.0979C27.7447 37.2148 27.5789 37.2793 27.4071 37.2777V37.2718Z" fill="#3A472E"/>
<path d="M32.4015 43.5105C32.1009 43.5214 31.803 43.451 31.5399 43.3071C31.3432 43.2012 31.1738 43.0519 31.0449 42.8708H30.9853L30.5709 43.3896H29.5691V37.1987C29.58 36.9095 29.5292 36.6212 29.4201 36.3526C29.3217 36.1404 29.0951 36.0343 28.7433 36.0343H28.624V35.6834H30.0402C30.2636 35.6715 30.486 35.7194 30.6842 35.822C30.8486 35.9319 30.9647 36.0995 31.0092 36.2907C31.0814 36.5879 31.1135 36.8932 31.1046 37.1987V38.1333C31.2707 38.036 31.4465 37.956 31.6293 37.8945C31.8551 37.8203 32.092 37.7845 32.3299 37.7883C32.8322 37.7681 33.3286 37.9008 33.7521 38.1686C34.1276 38.4227 34.419 38.7806 34.5898 39.1975C34.9635 40.1281 34.9635 41.1648 34.5898 42.0954C34.4222 42.5313 34.1186 42.9031 33.723 43.157C33.3274 43.4108 32.8604 43.5336 32.3896 43.5075L32.4015 43.5105ZM32.1659 42.9857C32.2911 42.9915 32.4158 42.9678 32.5299 42.9166C32.6439 42.8653 32.744 42.788 32.8219 42.6909C33.0025 42.4433 33.1229 42.1578 33.1737 41.8566C33.3247 41.0647 33.3247 40.2518 33.1737 39.4599C33.1213 39.1589 32.9966 38.8748 32.8099 38.6315C32.7233 38.5323 32.6149 38.4542 32.4929 38.403C32.3709 38.3519 32.2386 38.3292 32.1063 38.3367C31.9008 38.3309 31.6967 38.3723 31.51 38.4575C31.3698 38.5241 31.2344 38.5999 31.1046 38.6845V42.2458C31.1978 42.4488 31.3365 42.6282 31.51 42.7705C31.6948 42.919 31.9281 42.9956 32.1659 42.9857Z" fill="#3A472E"/>
<path d="M39.389 43.388V37.1972C39.4003 36.9081 39.3506 36.62 39.2429 36.3511C39.1455 36.1388 38.9189 36.0327 38.5631 36.0327H38.4438V35.6819H43.6583C43.8754 35.6688 44.0919 35.7147 44.2844 35.8145C44.4209 35.895 44.5259 36.0186 44.5826 36.1653C44.6383 36.3083 44.6667 36.4602 44.6661 36.6134V37.6069H44.3113C44.3305 37.4111 44.306 37.2136 44.2395 37.0281C44.1731 36.8427 44.0663 36.674 43.9267 36.5338C43.6154 36.297 43.2274 36.1807 42.8355 36.2066H40.9363V39.1252H44.0042V39.6499H40.9244V42.8603H42.9428C43.3315 42.8684 43.7143 42.7661 44.0459 42.5655C44.4036 42.3037 44.6695 41.9378 44.8062 41.519L45.1252 41.6369L44.7823 42.5596C44.7126 42.7765 44.599 42.9771 44.4484 43.1493C44.3546 43.231 44.2448 43.2928 44.1258 43.3309C44.0068 43.3689 43.8812 43.3823 43.7567 43.3704L39.389 43.388Z" fill="#3A472E"/>
<path d="M46.1069 43.3896V37.1987C46.1178 36.9095 46.067 36.6212 45.9579 36.3526C45.8595 36.1404 45.6329 36.0343 45.2811 36.0343H45.1499V35.6834H46.5661C46.7894 35.6715 47.0119 35.7194 47.2101 35.822C47.3796 35.9376 47.4963 36.1144 47.535 36.3143C47.6073 36.6115 47.6394 36.9168 47.6304 37.2223V43.4132L46.1069 43.3896Z" fill="#3A472E"/>
<path d="M58.7598 43.4418C58.4836 43.4389 58.2086 43.4053 57.9399 43.3416C57.6347 43.2662 57.3518 43.1207 57.1141 42.9171C56.8118 42.6432 56.579 42.3029 56.4343 41.9236L56.163 41.2691H53.0236L52.0546 43.3888H51.4404L54.9227 35.6855H55.4564L58.1009 41.9148C58.216 42.2189 58.3925 42.4968 58.6197 42.7314C58.8067 42.9261 59.0566 43.0502 59.3263 43.0822V43.377C59.2388 43.3961 59.1502 43.4099 59.0609 43.4183C58.961 43.4312 58.8605 43.4391 58.7598 43.4418ZM53.271 40.7355H55.9394L54.6395 37.6902L53.271 40.7355Z" fill="#3A472E"/>
<path d="M59.7405 43.3894V37.1985C59.7514 36.9093 59.7006 36.621 59.5915 36.3525C59.4931 36.1402 59.2665 36.0341 58.9147 36.0341H58.7954V35.6832H60.2116C60.4349 35.672 60.6572 35.7199 60.8556 35.8218C61.02 35.9317 61.1361 36.0993 61.1805 36.2905C61.2515 36.5879 61.2826 36.8932 61.273 37.1985V43.3894H59.7405Z" fill="#3A472E"/>
<path d="M62.9632 43.389V39.4268C62.974 39.1376 62.9233 38.8493 62.8141 38.5807C62.7157 38.3655 62.4891 38.2594 62.1373 38.2594H62.0181V37.9086H63.4342C63.6575 37.8974 63.8798 37.9452 64.0782 38.0471C64.2426 38.1571 64.3588 38.3246 64.4032 38.5159C64.4742 38.8142 64.5053 39.1205 64.4956 39.4268V43.389H62.9632ZM63.7294 37.2718C63.6047 37.2815 63.4793 37.2623 63.3634 37.2157C63.2475 37.1691 63.1441 37.0965 63.0616 37.0035C62.9177 36.8289 62.8406 36.6097 62.8439 36.3844C62.8395 36.2962 62.854 36.2081 62.8863 36.1258C62.9187 36.0435 62.9682 35.9689 63.0318 35.9068C63.1566 35.7909 63.3227 35.7284 63.4939 35.7329C63.6186 35.7232 63.7439 35.7424 63.8599 35.789C63.9758 35.8356 64.0791 35.9082 64.1617 36.0012C64.3047 36.1752 64.3817 36.3931 64.3794 36.6173C64.3842 36.7063 64.3697 36.7952 64.3367 36.8781C64.3038 36.961 64.2533 37.0359 64.1885 37.0979C64.0654 37.2152 63.9004 37.2798 63.7294 37.2777V37.2718Z" fill="#3A472E"/>
<path d="M66.127 43.3887V39.4265C66.1383 39.1378 66.0896 38.8498 65.9839 38.5804C65.8915 38.3652 65.6649 38.2591 65.3131 38.2591H65.1938V37.9083H66.3626C66.5718 37.9032 66.7802 37.9372 66.9767 38.0085C67.1452 38.0708 67.2843 38.1927 67.3673 38.3505H67.412C67.5944 38.2026 67.7947 38.0778 68.0083 37.979C68.2875 37.8481 68.5938 37.7835 68.9027 37.7903C69.1676 37.7846 69.4312 37.8266 69.6809 37.9142C69.8766 37.9827 70.0621 38.0769 70.2324 38.1942C70.3417 38.27 70.4418 38.358 70.5306 38.4566C70.7404 38.227 71.0003 38.0477 71.2906 37.9322C71.5809 37.8168 71.894 37.7683 72.2061 37.7903C72.5923 37.7785 72.976 37.8552 73.3272 38.0144C73.6331 38.1605 73.88 38.4047 74.0278 38.7072C74.2063 39.0932 74.2901 39.5154 74.2723 39.9395V43.3887H72.7368V39.9277C72.7751 39.5086 72.6803 39.0881 72.4655 38.7249C72.3901 38.617 72.2894 38.5288 72.1721 38.4677C72.0548 38.4067 71.9243 38.3745 71.7917 38.374C71.5855 38.3716 71.3815 38.416 71.1954 38.5038C71.0348 38.5777 70.8923 38.6853 70.778 38.8192C70.8511 38.9676 70.8985 39.127 70.9182 39.2909C70.9517 39.5055 70.9676 39.7224 70.9659 39.9395V43.3887H69.4304V39.9277C69.4688 39.5086 69.3739 39.0881 69.1591 38.7249C69.0844 38.6171 68.9843 38.5289 68.8674 38.4678C68.7506 38.4067 68.6205 38.3745 68.4883 38.374C68.3281 38.3765 68.1712 38.4192 68.0322 38.4979C67.8986 38.567 67.7736 38.6511 67.6595 38.7485V43.3887H66.127Z" fill="#3A472E"/>
</g>
<defs>
<clipPath id="clip0_897_3280">
<rect width="85" height="48" fill="white"/>
</clipPath>
</defs>
</svg>
